<!-- Created with Inkscape (http://www.inkscape.org/) -->
<svg width="148mm" height="132.27mm" version="1.1" viewBox="0 0 148 132.27" xmlns="http://www.w3.org/2000/svg">
 <path d="m62.979 93.403v-4h28v4" fill="none" stroke="#fff" stroke-width=".2869"/>
 <rect x="17.859" y="8.3431" width="105.56" height="71.627" rx=".68697" ry=".60912" fill-opacity="0" stroke="#fff"/>
 <circle cx="64.529" cy="91.033" r=".66405" fill="#fff"/>
 <path d="m93.789 93.403v-4.1177h4.9873v4.1177" fill="none" stroke="#fff" stroke-width=".3"/>
 <circle cx="66.545" cy="91.033" r=".66405" fill="#fff"/>
 <rect x="21.507" y="11.692" width="98.269" height="65.69" rx="1.3739" ry="1.2182" fill-opacity="0" stroke="#fff" stroke-width=".5"/>
 <rect x="9.2215" y=".32344" width="122.84" height="87.021" rx=".41218" ry=".36547" fill-opacity="0" stroke="#fff" stroke-width=".5"/>
 <circle cx="68.561" cy="91.033" r=".66405" fill="#fff"/>
 <g fill="none" stroke="#fff">
  <path d="m43.979 87.403h60l-1 5.9975h-58z" stroke-width=".5"/>
  <g transform="matrix(1.4644 0 0 1.4644 -90.46 -85.71)" stroke-linecap="round" stroke-width=".19585">
   <path d="m127.91 120.38a0.67851 0.67851 0 0 1 0.25793 0.75983 0.67851 0.67851 0 0 1-0.6471 0.47448 0.67851 0.67851 0 0 1-0.64711-0.47448 0.67851 0.67851 0 0 1 0.25793-0.75983"/>
   <path d="m127.52 120.87v-0.80968"/>
  </g>
  <g transform="translate(-31.021 -29.597)" stroke-linecap="round">
   <path d="m91.509 122.94 0.64392 2.4032h25.81l0.52847-1.9723" stroke-width=".3"/>
   <path d="m124.68 123.2a19.676 3.6699 0 0 1-9.8378 3.1782 19.676 3.6699 0 0 1-19.676 0 19.676 3.6699 0 0 1-9.8378-3.1782" stroke-width=".52855"/>
   <g stroke-width=".5">
    <path d="m124.68 124.7a19.676 3.6699 0 0 1-9.8378 3.1782 19.676 3.6699 0 0 1-19.676 0 19.676 3.6699 0 0 1-9.8378-3.1782"/>
    <path d="m124.68 123.19v1.5632"/>
    <path d="m85.324 123.19v1.5632"/>
   </g>
  </g>
  <g transform="translate(-32.143 -29.597)">
   <path d="m131.14 123.04 3.9662 7.0201a0.17508 0.17508 120.27 0 1-0.15243 0.2612h-57.624a0.20479 0.20479 55.682 0 1-0.19072-0.27939l2.7917-7.1371"/>
   <path d="m135.19 130.35 0.96846 3.4647a0.2276 0.2276 127.2 0 1-0.21924 0.28887l-59.645-0.01a0.22029 0.22029 53.719 0 1-0.21014-0.28628l1.1178-3.5605" stroke-linecap="round" stroke-linejoin="round"/>
  </g>
  <path d="m44.479 92.023h-15.5l-14.008 15.875a3.9672 3.9672 0 0 0-0.99243 2.6248v21.5h120v-21.5a3.9672 3.9672 0 0 0-0.99243-2.6248l-14.008-15.875h-15.5" stroke-width=".5"/>
  <g stroke-linecap="round" stroke-linejoin="bevel">
   <path d="m15.955 106.77h115.92" stroke-width=".3"/>
   <path d="m14.006 109.91h119.9" stroke-width=".30556"/>
   <g transform="translate(-31.021 -29.597)" stroke-width=".7">
    <path d="m53.398 147.82v10.509"/>
    <path d="m56.13 147.82v10.509"/>
    <path d="m58.862 147.82v10.509"/>
    <path d="m61.595 147.82v10.509"/>
    <path d="m64.327 147.82v10.509"/>
    <path d="m67.059 147.82v10.509"/>
    <path d="m69.792 147.82v10.509"/>
    <path d="m72.524 147.82v10.509"/>
    <path d="m75.256 147.82v10.509"/>
    <path d="m77.989 147.82v10.509"/>
   </g>
  </g>
  <rect x="29.409" y="100.99" width="6.9903" height="3.4866" ry="1.7433" stroke-width=".18749"/>
  <rect x="74.199" y="120.21" width="33.521" height="4.2804" ry=".83578" stroke-width=".3"/>
 </g>
 <g transform="translate(-31.021 -29.597)" fill="#fff">
  <rect x="134.16" y="156.22" width="3.3762" height="1.0799" ry=".53993"/>
  <rect x="127.18" y="145.69" width="3.9224" height="1.4493" ry=".72466"/>
  <rect x="117.88" y="142.29" width="7.682" height="2.5607" ry=".72466"/>
  <rect x="110.22" y="142.97" width="23.21" height="1.0911" ry=".54553"/>
 </g>
 <g fill="none" stroke="#fff" stroke-linecap="round">
  <path d="m31.829 102.65c0-8.0714-10.447-7.2162-16.063-7.8658-21.431-2.1537-16.628-21.693-6.8587-21.477"/>
  <path d="m34 102.64c0-10.135-7.4358-11.448-16.248-11.361-19.893 0.19621-15.101-21.554-8.8248-21.49"/>
 </g>
</svg>
