<?xml version="1.0" encoding="UTF-8" standalone="no"?>
<!-- Created with Inkscape (http://www.inkscape.org/) -->

<svg aria-label="Friends' School Lisburn Logo" xmlns="http://www.w3.org/2000/svg" xmlns:xlink="http://www.w3.org/1999/xlink" width="93.555" height="99.875" viewBox="0 0 93.555 99.875"><g transform="translate(24443 9869.485)"><path d="M159.545,78.75a1.067,1.067,0,0,1-.361-.073c-.666-.26-2.544-1.025-4.857-1.951-4.624-1.864-10.492-4.235-12.226-5.014-3.021-1.345-2.847-5.623-2.832-5.912l-.131-31.839a.578.578,0,0,0-.173-.419L135.5,30.031l24.035.015,23.485-.015-3.208,3.353a1.134,1.134,0,0,0-.332.809L179.36,65.8c.014.288.187,4.552-2.775,5.912-1.691.765-7.328,3.106-11.765,4.942-2.327.954-4.249,1.749-4.914,2.023a.946.946,0,0,1-.361.073" transform="translate(-24555.361 -9887.708)" fill="#ffc04d"></path><path d="M181.18,29.822l-2.76,2.862a1.468,1.468,0,0,0-.405,1.011L177.9,65.318s.246,4.336-2.6,5.636c-1.706.78-7.429,3.151-11.75,4.942-2.327.954-4.235,1.749-4.913,2.024a.865.865,0,0,1-.26.058.669.669,0,0,1-.246-.044c-.664-.26-2.544-1.026-4.856-1.951-4.451-1.792-10.45-4.22-12.212-5.015-2.92-1.3-2.66-5.636-2.66-5.636l-.13-31.853a.864.864,0,0,0-.26-.621l-2.977-3.021h23.341Zm1.358-.578H133.645l.969.983,2.977,3.021a.291.291,0,0,1,.087.216l.13,31.839c-.014.376-.159,4.769,3.007,6.186,1.748.78,7.616,3.165,12.226,5.015,2.313.925,4.191,1.691,4.857,1.951a1.231,1.231,0,0,0,.462.087,1.123,1.123,0,0,0,.477-.1h.015c.708-.289,2.587-1.056,4.9-2.009,4.436-1.835,10.074-4.176,11.779-4.943,3.108-1.417,2.963-5.81,2.934-6.17l.116-31.608a.854.854,0,0,1,.245-.607l2.747-2.861Z" transform="translate(-24554.189 -9887.209)" fill="#191717"></path><rect width="10.319" height="8.903" transform="translate(-24400.875 -9857.387)" fill="#ea352b"></rect><path d="M155.094,90.805h-8.643l-.043-9.25h8.686Z" transform="translate(-24562.27 -9920.328)" fill="#ea352b"></path><rect width="8.686" height="9.25" transform="translate(-24384.918 -9838.772)" fill="#ea352b"></rect><path d="M197.416,121.3v12.862c-2.327.954-4.249,1.749-4.914,2.024a.613.613,0,0,1-.505,0c-.666-.26-2.544-1.027-4.856-1.951V121.4l4.928,1.951a.52.52,0,0,0,.362,0Z" transform="translate(-24588.059 -9945.492)" fill="#ea352b"></path><path d="M77.361,155.662a13.9,13.9,0,0,1,1.517-8.469h-.2a5.845,5.845,0,0,1-4.35-1.6,4.934,4.934,0,0,1-1-3.989l.058-.477.39.274a9.209,9.209,0,0,0,4.336,1.547c.189,0,.362-.014.52-.028a10.564,10.564,0,0,0,4.842-2.473l.463-.39.014.607a30.63,30.63,0,0,0,.94,6.186l.073.26-.26.087c-.043.015-4.553,1.647-6.793,8.513l-.073.2H77.4Z" transform="translate(-24515.969 -9957.364)" fill="#faedcc"></path><path d="M83.146,139.588a29.976,29.976,0,0,0,.954,6.244s-4.654,1.6-6.981,8.7a13.493,13.493,0,0,1,1.764-8.744s-.289.028-.737.028c-1.677,0-5.607-.505-5.059-5.275a9.413,9.413,0,0,0,4.495,1.59,3.7,3.7,0,0,0,.564-.043,10.585,10.585,0,0,0,5-2.5m.535-1.228-.911.795a10.37,10.37,0,0,1-4.7,2.4c-.159.014-.318.029-.491.029a9.01,9.01,0,0,1-4.176-1.489l-.8-.55-.115.954a5.209,5.209,0,0,0,1.069,4.221,6.01,6.01,0,0,0,4.278,1.691,14.336,14.336,0,0,0-1.315,8.223l.072.492h.492a.558.558,0,0,0,.549-.405A15.257,15.257,0,0,1,81.787,148a8.366,8.366,0,0,1,2.471-1.619l.52-.188-.144-.52a29.139,29.139,0,0,1-.925-6.113Z" transform="translate(-24515.439 -9956.291)" fill="#191717"></path><path d="M125.417,135.981a1.544,1.544,0,0,1,.318-1.647c-.187-.2-.535-.578-.26-.954a.486.486,0,0,1,.333-.187c-.318-.405-.535-.8-.26-1.084a.427.427,0,0,1,.289-.116h.087c-.3-.39-.434-.679-.3-.91a.364.364,0,0,1,.288-.189.39.39,0,0,1-.043-.172.417.417,0,0,1,.145-.362.5.5,0,0,1,.347-.144h.058a.841.841,0,0,1-.1-.3.493.493,0,0,1,.491-.506.943.943,0,0,1,.2.029c0-.043-.015-.073-.015-.1a.578.578,0,0,1,.145-.375.468.468,0,0,1,.347-.145.569.569,0,0,1,.26.058.533.533,0,0,1,.072-.159.438.438,0,0,1,.362-.174.95.95,0,0,1,.505.188c.015-.044.029-.087.044-.13a.405.405,0,0,1,.332-.2h.073l.058.028a1.984,1.984,0,0,1,.925,1.186,3.616,3.616,0,0,1-.52,2.818,12.954,12.954,0,0,1-3.772,3.7l-.3.2Z" transform="translate(-24548.908 -9949.982)" fill="#faedcc"></path><path d="M128.607,128.184c.751.405,1.358,1.677.274,3.613a12.89,12.89,0,0,1-3.671,3.6,1.364,1.364,0,0,1,.42-1.531c.043-.087-.621-.506-.405-.8A.2.2,0,0,1,125.4,133c.245,0,.607.3.722.3.015,0,.015,0,.029-.015.087-.072-1.141-1.17-.867-1.459a.106.106,0,0,1,.087-.029c.376,0,1.344,1.113,1.561,1.113.014,0,.029,0,.029-.015.144-.174-1.763-1.792-1.561-2.153a.121.121,0,0,1,.1-.058c.376,0,1.488,1.171,1.764,1.171a.054.054,0,0,0,.043-.014c.187-.187-1.994-1.358-1.561-1.778a.185.185,0,0,1,.144-.057c.534,0,1.734,1.43,2.023,1.43a.077.077,0,0,0,.058-.029c.159-.3-2.225-1.706-1.778-2.154a.185.185,0,0,1,.144-.057c.564,0,1.907,1.7,2.11,1.7.014,0,.014,0,.014-.014.13-.173-2.038-1.763-1.575-2.226a.184.184,0,0,1,.144-.058c.477,0,1.33,1.531,1.633,1.531.029,0,.043-.014.072-.028.245-.347-1.373-1.387-1.127-1.72a.14.14,0,0,1,.13-.058c.317,0,.939.621,1.127.824,0,0,.014-.015,0-.015-.593-.954-.26-.954-.26-.954m.144-.578h-.144a.64.64,0,0,0-.492.231.852.852,0,0,0-.39-.087.719.719,0,0,0-.577.275h-.1a.85.85,0,0,0-.564.231.749.749,0,0,0-.2.361.772.772,0,0,0-.708.81v.073a.84.84,0,0,0-.232.158.732.732,0,0,0-.217.579.677.677,0,0,0-.217.231.829.829,0,0,0,.073.867.638.638,0,0,0-.1.087c-.174.174-.39.535.028,1.171a.447.447,0,0,0-.116.116.884.884,0,0,0,.116,1.141,1.843,1.843,0,0,0-.217,1.734l.246.68.607-.39a13.3,13.3,0,0,0,3.859-3.8,3.9,3.9,0,0,0,.549-3.049,2.292,2.292,0,0,0-1.056-1.359Z" transform="translate(-24548.443 -9949.483)" fill="#191717"></path><path d="M264.549,136.477a13.238,13.238,0,0,1-3.44-4.1,3.631,3.631,0,0,1-.245-2.891,1.974,1.974,0,0,1,1.055-1.1l.073-.029h.073a.369.369,0,0,1,.3.232.442.442,0,0,1,.028.144,1.037,1.037,0,0,1,.477-.144.409.409,0,0,1,.39.217.4.4,0,0,1,.059.173.574.574,0,0,1,.217-.043.508.508,0,0,1,.39.187.541.541,0,0,1,.115.39.344.344,0,0,1-.028.116.567.567,0,0,1,.158-.015.529.529,0,0,1,.405.174.434.434,0,0,1,.1.376.683.683,0,0,1-.13.3.556.556,0,0,1,.4.173.481.481,0,0,1,.1.39,1.4,1.4,0,0,1-.059.187.36.36,0,0,1,.275.218c.115.245-.043.519-.405.9h.043a.447.447,0,0,1,.333.145c.26.3-.014.693-.376,1.069a.5.5,0,0,1,.318.217c.245.39-.145.752-.362.925a1.572,1.572,0,0,1,.159,1.691l-.159.332Z" transform="translate(-24634.609 -9949.957)" fill="#faedcc"></path><path d="M261.471,128.144s.347.029-.361.925v.014a3.143,3.143,0,0,1,1.2-.708.16.16,0,0,1,.145.072c.217.347-1.533,1.243-1.316,1.619a.083.083,0,0,0,.073.044c.318,0,1.287-1.388,1.777-1.388a.223.223,0,0,1,.174.087c.419.52-1.937,1.908-1.821,2.081,0,.014.014.014.029.014.216,0,1.691-1.5,2.268-1.5a.238.238,0,0,1,.174.072c.4.491-2.154,1.662-2.024,1.994.015.029.029.044.058.044.3,0,1.6-1.243,2.154-1.243a.239.239,0,0,1,.173.073c.39.477-1.936,1.431-1.763,1.633.014.014.029.014.057.014.289,0,1.488-1,1.878-1a.118.118,0,0,1,.116.057c.174.376-1.922,1.822-1.807,2.009.015.014.015.014.043.014.232,0,1.287-.968,1.677-.968a.164.164,0,0,1,.116.044c.26.3-1.113,1.286-1.026,1.373a.05.05,0,0,0,.029.014c.115,0,.477-.231.722-.231a.217.217,0,0,1,.2.1c.187.3-.52.65-.491.751a1.392,1.392,0,0,1,.274,1.59,13.036,13.036,0,0,1-3.353-3.989c-.925-2.067-.188-3.281.621-3.613m-.087-.578-.131.058a2.308,2.308,0,0,0-1.214,1.257,3.933,3.933,0,0,0,.246,3.123,13.718,13.718,0,0,0,3.526,4.22l.564.448.3-.65a1.818,1.818,0,0,0-.043-1.763.883.883,0,0,0,.232-1.127.5.5,0,0,0-.116-.13c.477-.593.289-1,.145-1.171a.342.342,0,0,0-.1-.1.833.833,0,0,0,.173-.867.655.655,0,0,0-.189-.245.772.772,0,0,0-.174-.608.882.882,0,0,0-.217-.187c0-.028.015-.043.015-.073a.729.729,0,0,0-.173-.592.766.766,0,0,0-.477-.275.806.806,0,0,0-.174-.39.8.8,0,0,0-.621-.288h-.029a.74.74,0,0,0-.636-.347.852.852,0,0,0-.318.057.655.655,0,0,0-.477-.274Z" transform="translate(-24634.076 -9949.458)" fill="#191717"></path><path d="M300.6,157.765a.373.373,0,0,1-.361-.274c-.3-1.229-2.067-7.443-6.605-8.889a.44.44,0,0,1-.289-.55,32.147,32.147,0,0,0,1.229-7.038.449.449,0,0,1,.448-.448.371.371,0,0,1,.318.144c.694.737,3.18,3.165,6.272,3.165a6.426,6.426,0,0,0,3.253-.925.422.422,0,0,1,.231-.058.45.45,0,0,1,.448.52,4.834,4.834,0,0,1-5.173,4.162,6.983,6.983,0,0,1-.94-.057,10.855,10.855,0,0,1,1.547,10,.4.4,0,0,1-.376.246" transform="translate(-24655.285 -9957.688)" fill="#faedcc"></path><path d="M294.489,140.356a.169.169,0,0,1,.116.043c.809.867,3.323,3.252,6.489,3.252a6.635,6.635,0,0,0,3.4-.968.261.261,0,0,1,.073-.029.168.168,0,0,1,.158.189,4.549,4.549,0,0,1-4.884,3.916,9.287,9.287,0,0,1-1.229-.087h-.029a.158.158,0,0,0-.115.26,10.474,10.474,0,0,1,1.7,9.987.073.073,0,0,1-.072.057c-.029,0-.073-.014-.073-.057-.347-1.417-2.139-7.617-6.807-9.091a.147.147,0,0,1-.1-.187,31.691,31.691,0,0,0,1.229-7.111.146.146,0,0,1,.144-.173m0-.578a.741.741,0,0,0-.737.737,30.966,30.966,0,0,1-1.214,6.966.713.713,0,0,0,.491.9c4.394,1.4,6.113,7.486,6.418,8.685a.66.66,0,0,0,1.271.043,11.818,11.818,0,0,0,.1-6.966,10.6,10.6,0,0,0-1.315-2.775h.347a5.129,5.129,0,0,0,5.463-4.393.774.774,0,0,0-.159-.593.767.767,0,0,0-.564-.26.7.7,0,0,0-.375.1,6.06,6.06,0,0,1-3.107.9c-2.978,0-5.391-2.355-6.07-3.078a.713.713,0,0,0-.55-.26" transform="translate(-24654.768 -9957.189)" fill="#191717"></path><path d="M116.765,144.5c-.289,0-7.212-.058-11.273-5.65-4.292-5.9-3.627-15.884-2.629-18.123a2.487,2.487,0,0,1,2.369-1.532,2.65,2.65,0,0,1,2.183,1.027,3.313,3.313,0,0,0,.925,1.1l.347.16c.13-.029.246-.058.347-.087a12.3,12.3,0,0,0,1.72-.549l.231-.087a3.288,3.288,0,0,1,1.127-.231,3.225,3.225,0,0,1,2.515,1.488l.332.434-.534.043c-.029,0-2.211.174-3.035,1.706-.824,1.561-.666,5.376-.3,6.85.4,1.647.968,3.267,2.384,3.931a15.059,15.059,0,0,0,4.957,1.243h38.949c.232-.015,4-.376,5.752-1.907,1.517-1.33,1.677-3.974,1.793-5.724.014-.318.043-.607.057-.867a6.066,6.066,0,0,0-1.185-4.22,3.074,3.074,0,0,0-2.37-1h-.549l.231-.434a3.13,3.13,0,0,1,2.674-1.6,5.576,5.576,0,0,1,3.512,1.662,3.952,3.952,0,0,1,2.6-2.948,2.29,2.29,0,0,1,.78-.159,1.953,1.953,0,0,1,1.445.68c1.243,1.33,1.677,4.336,1.561,5.955-.173,2.673-.679,7.631-2.008,10.709-.9,2.081-3.917,7.039-12.4,8.123h-.014Z" transform="translate(-24534.23 -9944.046)" fill="#faedcc"></path><path d="M170.153,118.848c2.1,0,2.861,4.22,2.732,6.331-.159,2.326-.636,7.5-1.98,10.608s-4.826,7.009-12.169,7.948h-42.49c-.419,0-7.081-.087-11.041-5.536-4.09-5.621-3.656-15.478-2.6-17.834a2.22,2.22,0,0,1,2.1-1.358,2.371,2.371,0,0,1,1.936.9c.679,1.041,1.041,1.214,1.041,1.214l-.925.65a16.931,16.931,0,0,1,1.807-.564,14.7,14.7,0,0,0,1.994-.65,3.021,3.021,0,0,1,1.027-.217,2.855,2.855,0,0,1,2.283,1.372s-2.355.159-3.266,1.864-.679,5.665-.333,7.068c.347,1.387.9,3.338,2.544,4.119a15.4,15.4,0,0,0,5.058,1.272h38.993s4.046-.318,5.926-1.979,1.792-5.044,1.951-6.779-.434-5.535-3.845-5.535h-.058a2.889,2.889,0,0,1,2.428-1.445c.954,0,2.182.477,3.729,1.979a3.509,3.509,0,0,1,2.471-3.28,1.8,1.8,0,0,1,.694-.145m0-.578a2.518,2.518,0,0,0-.9.174,4.28,4.28,0,0,0-2.673,2.688,5.4,5.4,0,0,0-3.339-1.43,3.472,3.472,0,0,0-2.933,1.748l-.463.867.983-.014h.058a2.744,2.744,0,0,1,2.154.9,5.705,5.705,0,0,1,1.112,4c-.028.26-.043.564-.057.882-.1,1.7-.274,4.277-1.691,5.52-1.648,1.446-5.261,1.807-5.565,1.836h-38.92a14.746,14.746,0,0,1-4.842-1.214c-1.3-.622-1.835-2.154-2.225-3.73-.318-1.286-.534-5.13.274-6.647.737-1.388,2.775-1.547,2.79-1.561l1.069-.072-.65-.853a3.459,3.459,0,0,0-2.745-1.6,3.624,3.624,0,0,0-1.229.246c-.072.029-.158.058-.245.087a11.512,11.512,0,0,1-1.662.535c-.058.015-.13.029-.188.043l-.332-.087a3.8,3.8,0,0,1-.809-1,2.961,2.961,0,0,0-2.428-1.171,2.787,2.787,0,0,0-2.631,1.706c-.55,1.228-.954,4.365-.679,7.977.231,2.992,1,7.226,3.338,10.435a13.86,13.86,0,0,0,7.14,5.015,15.88,15.88,0,0,0,4.365.751h42.563a17.774,17.774,0,0,0,8.614-3.266,12.678,12.678,0,0,0,4.017-5.015c1.345-3.108,1.85-8.093,2.024-10.8.116-1.706-.318-4.755-1.648-6.171a2.229,2.229,0,0,0-1.647-.78" transform="translate(-24533.711 -9943.572)" fill="#191717"></path><path d="M284.41,138.48a.8.8,0,0,0-.26-.144,1.387,1.387,0,0,0-.52-.087h-.087l-2.4-.029H280.9a.285.285,0,0,1-.1.014,2.559,2.559,0,0,0-.26.043,1.768,1.768,0,0,0-.275.145l.029-2.457.679.014a1.145,1.145,0,0,0-.173.188.874.874,0,0,0-.232.665v.636l1.533.014v-.217a2.163,2.163,0,0,0-.015-.333c-.014-.087-.014-.173-.028-.245a.616.616,0,0,0-.333-.376l1.041.014c-.1.029-.187.159-.246.217a.49.49,0,0,0-.1.232,2.783,2.783,0,0,0-.029.434v.317l1.749.014V136.8a1.33,1.33,0,0,0-.058-.462.777.777,0,0,0-.231-.318c-.087-.072-.187-.144-.187-.144l.794.043Z" transform="translate(-24647.016 -9954.721)" fill="#191717"></path><path d="M160.826,176.2s.144-.737.217-.621a.885.885,0,0,0,.274.288,1.225,1.225,0,0,0,.362.2.944.944,0,0,0,.375.087.869.869,0,0,0,.564-.2.668.668,0,0,0,.232-.505.773.773,0,0,0-.073-.289.685.685,0,0,0-.174-.187c-.087-.073-.217-.159-.39-.275l-.26-.145-.39-.231a1.191,1.191,0,0,1-.679-1.012.957.957,0,0,1,.405-.81,1.727,1.727,0,0,1,1.055-.3,2.035,2.035,0,0,1,.26.014c.116.014.246.029.39.043l.2.014a3.767,3.767,0,0,1-.029.564,1.709,1.709,0,0,0-.78-.39.685.685,0,0,0-.506.187.6.6,0,0,0-.2.463.635.635,0,0,0,.231.492,1.206,1.206,0,0,0,.246.174,4.538,4.538,0,0,0,.418.231,5.08,5.08,0,0,1,.477.274,2.2,2.2,0,0,1,.275.2.951.951,0,0,1,.3.723,1.109,1.109,0,0,1-.463.9,1.808,1.808,0,0,1-1.156.362,2.012,2.012,0,0,1-.505-.059,2.292,2.292,0,0,1-.679-.187" transform="translate(-24571.398 -9977.716)" fill="#191717"></path><path d="M130.179,172.519s.419-.6.448-.476a1.181,1.181,0,0,0,.13.375,1.33,1.33,0,0,0,.246.332.994.994,0,0,0,.3.216.851.851,0,0,0,.593.043.615.615,0,0,0,.4-.375.577.577,0,0,0,.044-.288,1.229,1.229,0,0,0-.073-.245,3.122,3.122,0,0,0-.245-.4l-.174-.245-.26-.375a1.184,1.184,0,0,1-.217-1.2.94.94,0,0,1,.694-.577,1.74,1.74,0,0,1,1.084.144c.058.028.13.072.231.115a2.855,2.855,0,0,1,.333.2l.173.1a3.35,3.35,0,0,1-.26.505s-.275-.533-.564-.663a.7.7,0,0,0-.535-.029.592.592,0,0,0-.361.332.715.715,0,0,0,0,.548,2.669,2.669,0,0,0,.144.26c.073.1.159.231.289.389a4.932,4.932,0,0,1,.317.433,1.6,1.6,0,0,1,.174.3.916.916,0,0,1-.014.779,1.093,1.093,0,0,1-.794.634,1.762,1.762,0,0,1-1.2-.129,3.167,3.167,0,0,1-.434-.245c-.116-.116-.274-.274-.477-.462" transform="translate(-24551.996 -9975.861)" fill="#191717"></path><path d="M200.848,176.2s.144-.737.217-.621a.885.885,0,0,0,.274.288,1.225,1.225,0,0,0,.362.2.944.944,0,0,0,.375.087.87.87,0,0,0,.564-.2.668.668,0,0,0,.232-.505.775.775,0,0,0-.073-.289.686.686,0,0,0-.174-.187c-.087-.073-.217-.159-.39-.275l-.26-.145-.39-.231a1.191,1.191,0,0,1-.679-1.012.957.957,0,0,1,.405-.81,1.727,1.727,0,0,1,1.055-.3,2.036,2.036,0,0,1,.26.014c.116.014.246.029.39.043l.2.014a3.771,3.771,0,0,1-.029.564,1.71,1.71,0,0,0-.78-.39.685.685,0,0,0-.506.187.6.6,0,0,0-.2.463.635.635,0,0,0,.231.492,1.2,1.2,0,0,0,.246.174,4.536,4.536,0,0,0,.418.231,5.076,5.076,0,0,1,.477.274,2.207,2.207,0,0,1,.275.2.951.951,0,0,1,.3.723,1.109,1.109,0,0,1-.463.9,1.808,1.808,0,0,1-1.156.362,2.012,2.012,0,0,1-.505-.059,2.292,2.292,0,0,1-.68-.187" transform="translate(-24596.736 -9977.716)" fill="#191717"></path><path d="M179.329,176.306a1.488,1.488,0,0,0,.217-.535l.029-.332L179.5,173.1v-.13a3.333,3.333,0,0,0-.029-.477,1.036,1.036,0,0,0-.174-.333h.694a.472.472,0,0,1,.434.289l1.113,2.139,1-2.125a.466.466,0,0,1,.433-.3h.694a1.63,1.63,0,0,0-.115.289,1.566,1.566,0,0,0-.073.506v.13l-.014,2.369.044.347a.8.8,0,0,0,.072.246,1.844,1.844,0,0,0,.189.274h-1.229a1.356,1.356,0,0,0,.144-.3,1.267,1.267,0,0,0,.043-.375l-.014-.189L182.7,173.1l-1.2,2.659h-.318l-1.316-2.673.072,2.384v.2a.837.837,0,0,0,.014.174,1.245,1.245,0,0,0,.058.217,2.431,2.431,0,0,0,.174.275h-.853Z" transform="translate(-24583.094 -9977.689)" fill="#191717"></path><path d="M219.717,176.345a1.671,1.671,0,0,0,.144-.274,1.169,1.169,0,0,0,.058-.26l.014-.332v-2.471a1.773,1.773,0,0,0-.043-.463,1.22,1.22,0,0,0-.159-.347h.809l2.038,3.064v-2.529a1.145,1.145,0,0,0-.057-.275,1.276,1.276,0,0,0-.145-.26h.738a2.232,2.232,0,0,0-.13.3.781.781,0,0,0-.043.232,1.066,1.066,0,0,0-.015.26v3.368h-.491l-2.168-3.281v2.745a1.029,1.029,0,0,0,.2.535h-.751Z" transform="translate(-24608.682 -9977.715)" fill="#191717"></path><path d="M230.235,173.231v-1.113l.187.073h2.37a2.4,2.4,0,0,0,.39-.014l.144-.043v1.1a1.782,1.782,0,0,0-.144-.289,1.867,1.867,0,0,0-.16-.2.665.665,0,0,0-.288-.174,1.648,1.648,0,0,0-.433-.043h-.13v3.222a1.024,1.024,0,0,0,.245.52h-1.2a1.226,1.226,0,0,0,.144-.26,1.2,1.2,0,0,0,.087-.491v-2.992a1.756,1.756,0,0,0-.333.014,1.738,1.738,0,0,0-.26.058,1.039,1.039,0,0,0-.621.636" transform="translate(-24615.342 -9977.664)" fill="#191717"></path><path d="M280.508,146.854,279.4,146.8l.087-.173.029-.405.087-1.648v-.087a1.417,1.417,0,0,0,0-.361l-.043-.13,1.1.057c-.13.044-.231.087-.3.116a1.074,1.074,0,0,0-.2.144.566.566,0,0,0-.189.247,1.745,1.745,0,0,0-.072.39v.116l2.876.158h.073l.26.015a1.18,1.18,0,0,0,.534-.189l-.057,1.084a1.82,1.82,0,0,0-.246-.145,1.443,1.443,0,0,0-.477-.1h-.1l-2.876-.16a.992.992,0,0,0,0,.3.749.749,0,0,0,.043.245c.043.217.246.4.593.578" transform="translate(-24646.465 -9959.858)" fill="#191717"></path><path d="M282.264,155.457a2.052,2.052,0,0,0-.231-.246,1.281,1.281,0,0,0-.246-.13l-.26-.058-.043-.014-2.384-.492-.347-.072a1.375,1.375,0,0,0-.274.014,1.757,1.757,0,0,0-.3.13l.275-1.3a1.5,1.5,0,0,0,.231.217.739.739,0,0,0,.217.1c.073.029.145.043.187.058s.088.014.116.029l.087.015,2.356.477.332.072a.833.833,0,0,0,.275,0,1.807,1.807,0,0,0,.3-.13Z" transform="translate(-24645.691 -9965.743)" fill="#191717"></path><path d="M153.118,174.2a2.412,2.412,0,0,0,.52-.217,1.391,1.391,0,0,0,.318-.275,1.044,1.044,0,0,0,.232-.68.839.839,0,0,0-.318-.694,1.282,1.282,0,0,0-.852-.26l-.463.029-.477.029h-.824a1.932,1.932,0,0,1,.188.26.889.889,0,0,1,.058.274V175.5a1.415,1.415,0,0,1-.087.52.978.978,0,0,1-.16.26h1.228a.828.828,0,0,1-.231-.52v-1.446c.029.015,1.113,1.951,1.113,1.951h.939Zm-.694-.116h-.159V172.44l.419-.029a.677.677,0,0,1,.751.737.862.862,0,0,1-.288.665.981.981,0,0,1-.723.274" transform="translate(-24565.336 -9977.639)" fill="#191717"></path><path d="M276.6,160.5a2.788,2.788,0,0,0,.029-.564,1.136,1.136,0,0,0-.621-.91.815.815,0,0,0-.752-.015,1.3,1.3,0,0,0-.592.665l-.173.434-.174.447-.362.737a1.043,1.043,0,0,1,.318-.043,1.5,1.5,0,0,1,.274.058l.318.158,2.168,1.04.073.044a1.293,1.293,0,0,1,.433.3,1.348,1.348,0,0,1,.174.26l.534-1.113a.817.817,0,0,1-.564-.014l-.317-.144-1-.477c.029-.015,2.24-.174,2.24-.174l.4-.853Zm-.4.578-.073.145-1.474-.708.145-.391a.789.789,0,0,1,.419-.419.756.756,0,0,1,.579.058.859.859,0,0,1,.477.548,1.028,1.028,0,0,1-.073.766" transform="translate(-24643.023 -9969.313)" fill="#191717"></path><path d="M169.65,172.133h1.171s-.116.073-.246.477-.158,3.223.463,3.382,1.33-1.4.477-3.873h1.041a1.517,1.517,0,0,0-.289.809l-.144,2.067a1.437,1.437,0,0,1-.347.954.965.965,0,0,1-.723.347,1.3,1.3,0,0,1-1.214-1.069,19.46,19.46,0,0,0-.188-3.092" transform="translate(-24576.984 -9977.665)" fill="#191717"></path><path d="M113.2,149.665l.289,1.141s-.087-.087-.52-.115-3.165.664-3.151,1.286,1.691.94,3.859-.505l.26,1.011a1.68,1.68,0,0,0-.853-.073l-2.038.376a1.433,1.433,0,0,1-1.011-.087.954.954,0,0,1-.521-.621,1.316,1.316,0,0,1,.723-1.446,19.063,19.063,0,0,0,2.962-.968" transform="translate(-24538.887 -9963.449)" fill="#191717"></path><path d="M141.165,171.488l1.171.16s-.116.043-.3.448-.607,3.179-.029,3.411,1.517-1.2,1.026-3.757l1.041.144a1.64,1.64,0,0,0-.4.766l-.433,2.023a1.345,1.345,0,0,1-.477.9.969.969,0,0,1-.766.246,1.324,1.324,0,0,1-1.054-1.228,20.958,20.958,0,0,0,.231-3.108" transform="translate(-24558.805 -9977.266)" fill="#191717"></path><path d="M210.3,172.158h1.171s-.116.073-.246.477-.158,3.224.463,3.382,1.33-1.387.477-3.859h1.041a1.66,1.66,0,0,0-.289.795l-.144,2.067a1.437,1.437,0,0,1-.347.954.965.965,0,0,1-.723.347,1.3,1.3,0,0,1-1.214-1.069,19.462,19.462,0,0,0-.187-3.092" transform="translate(-24602.723 -9977.689)" fill="#191717"></path><path d="M256.864,171.831l1.156-.231s-.1.087-.145.52.463,3.193,1.1,3.222c.621.029,1.04-1.633-.275-3.888l1.026-.2a1.582,1.582,0,0,0-.13.852l.246,2.053a1.38,1.38,0,0,1-.159,1.011.948.948,0,0,1-.65.477,1.317,1.317,0,0,1-1.4-.81,19.264,19.264,0,0,0-.766-3.006" transform="translate(-24632.201 -9977.116)" fill="#191717"></path><path d="M249.686,176.355a2.462,2.462,0,0,0,.809-2.009c0-1.228-.39-2.225-1.5-2.225-1.012,0-1.5,1-1.5,2.225s.607,2.226,1.5,2.226c.072,0,.145-.015.217-.015l1.242.665.232-.362Zm-.679-.073c-.477,0-.578-.867-.578-1.937s.1-1.936.578-1.936c.55,0,.578.867.578,1.936s-.072,1.937-.578,1.937" transform="translate(-24626.266 -9977.665)" fill="#191717"></path><path d="M106.811,143.328a2.463,2.463,0,0,0,2.081.635c1.229-.115,2.2-.578,2.1-1.691-.087-1.011-1.127-1.4-2.356-1.3-1.228.116-2.168.81-2.1,1.691a.567.567,0,0,0,.043.216l-.55,1.3.376.2Zm.029-.679c-.043-.477.81-.65,1.864-.737,1.07-.1,1.937-.073,1.98.4.043.55-.81.651-1.865.737s-1.937.1-1.98-.4" transform="translate(-24536.705 -9957.935)" fill="#191717"></path><path d="M115.617,163.25s-.13.014-.246.014a1.109,1.109,0,0,1-.4-.087c-.015-.014-.044-.014-.059-.029a1.4,1.4,0,0,1-.317-.288l-.217-.232-.014-.014-.1-.116-.2-.217.635-.592.073-.072.174-.16.029-.028.375-.347.145.158.13.145.028.028c.1.116.159.2.2.26a.467.467,0,0,1,.087.246.531.531,0,0,1-.014.332l.765-.708a.642.642,0,0,1-.52-.072,2.526,2.526,0,0,0-.2-.175c-.059-.057-.116-.115-.189-.187-.014-.028-.043-.043-.072-.072l-.16-.174.607-.565.274-.245.246-.232.217.232.26.274a.87.87,0,0,1,.3.694.711.711,0,0,1-.043.173l.577-.376-1.315-1.415-.029-.015L116.3,159h-.014c-.014.015-3.5,1.012-3.5,1.012l-.361.1a2.866,2.866,0,0,1-.318.058,3.444,3.444,0,0,1-.362-.014l.679.766a1.114,1.114,0,0,1,.073-.232.842.842,0,0,1,.1-.13,1.372,1.372,0,0,1,.463-.245l.39-.145.78.853-.3.289-.058.058a1.392,1.392,0,0,1-.434.289.923.923,0,0,1-.3.073l.867.939.1.116.795.867.1.116Zm-1.937-3.18,2.3-.679-1.59,1.46Z" transform="translate(-24540.322 -9969.359)" fill="#191717"></path><path d="M271.65,168.758s-.014.116-.029.246a.9.9,0,0,1-.16.376.207.207,0,0,0-.043.057,1.309,1.309,0,0,1-.332.26l-.274.174-.015.014-.13.087-.246.159-.462-.737-.058-.087-.13-.2-.014-.028-.274-.42.188-.116.159-.1.043-.029a2.123,2.123,0,0,1,.3-.158.444.444,0,0,1,.26-.043.736.736,0,0,1,.332.072l-.564-.881a.684.684,0,0,1-.158.506c-.058.058-.13.1-.217.174-.058.043-.13.1-.217.158a.3.3,0,0,0-.087.058l-.2.13-.448-.694-.2-.318-.174-.288.26-.174.318-.2a.9.9,0,0,1,.737-.174.854.854,0,0,1,.159.073l-.274-.636-1.619,1.04-.028.014-.434.26v.015c0,.028.375,3.612.375,3.612l.029.376a1.178,1.178,0,0,1,0,.318c-.014.1-.043.217-.073.361l.882-.535a.713.713,0,0,1-.217-.116.5.5,0,0,1-.116-.13,1.485,1.485,0,0,1-.159-.491l-.072-.4.982-.622.216.347.044.073a1.352,1.352,0,0,1,.216.477.88.88,0,0,1,.015.3l1.069-.679.13-.087.983-.635.13-.087h.014Zm-3.454,1.33-.26-2.384,1.156,1.821Z" transform="translate(-24639.01 -9973.799)" fill="#191717"></path><path d="M195.952,176.741a.724.724,0,1,1-.212-.511.7.7,0,0,1,.212.511" transform="translate(-24592.721 -9980.133)" fill="#191717"></path><path d="M241.844,176.741a.724.724,0,1,1-.212-.511.7.7,0,0,1,.212.511" transform="translate(-24621.777 -9980.133)" fill="#191717"></path><path d="M127.883,170.32a.722.722,0,1,1-.211-.511.7.7,0,0,1,.211.511" transform="translate(-24549.627 -9976.068)" fill="#191717"></path><path d="M178.166,81.863a.736.736,0,0,1-.246-.043l-8.642-3.425a3.591,3.591,0,0,1-2.327-3.324V58.378a2.356,2.356,0,0,0-.752-1.7l-1.315-1.228,13.282-.044,12.7.044-1.258,1.228a2.386,2.386,0,0,0-.722,1.7V75.071a3.582,3.582,0,0,1-2.226,3.324l-8.252,3.425a.675.675,0,0,1-.246.043" transform="translate(-24573.967 -9903.77)" fill="#fff"></path><path d="M177.393,55.249l12.269.043-.938.911a2.565,2.565,0,0,0-.78,1.835V74.731a3.4,3.4,0,0,1-2.11,3.15l-8.253,3.426a.4.4,0,0,1-.187.043.733.733,0,0,1-.174-.029L168.576,77.9a3.441,3.441,0,0,1-2.211-3.151V58.053a2.485,2.485,0,0,0-.809-1.835l-.982-.911Zm0-.361-12.819.043h-.911l.664.621.983.911A2.15,2.15,0,0,1,166,58.039V74.731a3.785,3.785,0,0,0,2.428,3.5l8.643,3.426a.753.753,0,0,0,.3.058.778.778,0,0,0,.318-.058l8.253-3.426a3.765,3.765,0,0,0,2.326-3.5V58.053a2.266,2.266,0,0,1,.666-1.59l.94-.911.635-.621h-.881Z" transform="translate(-24573.193 -9903.444)" fill="#191717"></path><path d="M196.242,71.8c-.131-.593-.463-2.356-.535-2.79q-.3-1.777-1.561-1.778a1.1,1.1,0,0,0-.679.232l.058-2.183.029-1.17V62.565c-.116-.607-.549-1.632-1.445-1.632a.914.914,0,0,0-.2.014,1.475,1.475,0,0,0-.824.405,1.523,1.523,0,0,0-1.388-1.186c-.723,0-1.17.751-1.4,1.344a1.122,1.122,0,0,0-.969-.506c-.881,0-1.3.954-1.416,1.532l-.014.043v.636a1.022,1.022,0,0,0-.766-.333h-.072c-.867.058-1.2,1.055-1.258,1.633v7.877c-.044.058-.1.13-.13.174a3.394,3.394,0,0,0-.245,1.647l.029.664a4.991,4.991,0,0,0,.4,2.572,4.794,4.794,0,0,0,.853,1.3,2.2,2.2,0,0,1,.621,1.085,2.236,2.236,0,0,0,1.012,1.632l.087.043h6.793l.13-.173a4.237,4.237,0,0,0,.406-1.936A10.132,10.132,0,0,0,196,75.486a8.7,8.7,0,0,0,.247-3.685" transform="translate(-24585.699 -9906.786)" fill="#191717"></path><path d="M196.037,80.507c-.073-.419-.26-1.417-1.141-1.417s-.8,1.387-.8,1.387V83.5a.71.71,0,0,1,.506-.13,3.978,3.978,0,0,1,.737.087c-1.04.39-1.257.91-1.257.91s-.043,1.344-.043,2.327.3,1.141.3,1.141a.271.271,0,0,1-.1.015c-.723,0-.636-1.807-.636-1.807a5.48,5.48,0,0,0-.954.737,3.635,3.635,0,0,1,.983-1.6v-.911c-2.79,1.33-4.351,5.232-4.351,5.232a6.137,6.137,0,0,1,2.4-4.278,5.1,5.1,0,0,0-3.02,1.691c.505-1.98,2.369-1.691,3.642-2.341a2.7,2.7,0,0,0,1.445-1.865V80.016c-.043-.232-.4-.347-.78-.347a1.248,1.248,0,0,0-.9.3,1.535,1.535,0,0,0-.144,1.719,1.68,1.68,0,0,0,1.214.694,2.219,2.219,0,0,1-.578.087,1.126,1.126,0,0,1-1.141-1.011v-2.1c-1.345,0-2.255.144-2.255,1.488,0,1.084,1.186,1.185,1.648,1.185h.187a1.718,1.718,0,0,1-.91.26,2.645,2.645,0,0,1-1.243-.347V79.466c-2.139.029-2.023,1.72-1.575,2.284a1.8,1.8,0,0,0,1.329.419,3.228,3.228,0,0,0,.433-.028,1.3,1.3,0,0,1-1.011.419,2.131,2.131,0,0,1-.52-.072c-.564-.145-.925-1.272-.925-1.272V78.643c0-.3-.492-.434-.867-.434s-.809.463-.809,1.228,1.387.926,1.387.926c-1.417.043-1.271.505-1.271.505v2.139a3.14,3.14,0,0,1,1.474-.52.655.655,0,0,1,.217.028,6.929,6.929,0,0,0-1.922,1.677,3.523,3.523,0,0,0-.188,1.387c1.141-1.271,4.35-1.3,4.35-1.3a3.321,3.321,0,0,1,2.472-1.228,1.963,1.963,0,0,1,.52.057,5.3,5.3,0,0,0-2.8,1.677c-.174-.015-.333-.015-.492-.015-2.775,0-3.916,1.128-4,1.446A4.439,4.439,0,0,0,185,88.658c.463,1.113,1.344,1.489,1.5,2.486a1.8,1.8,0,0,0,.795,1.33h6.475a4.869,4.869,0,0,0,.317-1.836,9.753,9.753,0,0,0,2.255-3.873,8.214,8.214,0,0,0,.231-3.44c-.144-.607-.462-2.4-.535-2.818" transform="translate(-24586.447 -9918.209)" fill="#ea352b"></path><path d="M206.3,64.683s-.231-1.287-1.011-1.287a.376.376,0,0,0-.13.015,1.1,1.1,0,0,0-.926,1v2.37l1.388.043h.015a.672.672,0,0,0,.664-.664Z" transform="translate(-24598.879 -9908.831)" fill="#ea352b"></path><path d="M205.256,73.206c-.925,0-1.1.4-1.1.4v2.876s.361-.448,1.849-.448h.145l.058-2.515c.014.015-.029-.318-.954-.318" transform="translate(-24598.832 -9915.041)" fill="#ea352b"></path><path d="M186.5,68.675h-.043c-.723.044-.853,1.243-.853,1.243v1.908a3.833,3.833,0,0,0,.8.071h.13a.765.765,0,0,0,.708-.548v-1.72c-.014.014-.058-.954-.737-.954" transform="translate(-24587.084 -9912.173)" fill="#ea352b"></path><path d="M198.47,70.8a1.138,1.138,0,0,0-1.127.708v2.8a.244.244,0,0,0,.246.246.19.19,0,0,0,.087-.014,4.23,4.23,0,0,1,1.474-.348,1.6,1.6,0,0,1,.274.015V71.266s-.058-.463-.954-.463" transform="translate(-24594.518 -9913.521)" fill="#ea352b"></path><path d="M198.474,61.348c-.795,0-1.171,1.648-1.171,1.648v1.677a2.831,2.831,0,0,1,1.127-.231,2.52,2.52,0,0,1,1.026.217l.044-2.3c-.015,0-.232-1.011-1.027-1.011" transform="translate(-24594.49 -9907.534)" fill="#ea352b"></path><path d="M192.262,63.633c-.751,0-1,1.171-1,1.171l-.029,2.182a.306.306,0,0,0,.3.3.24.24,0,0,0,.1-.015,4.975,4.975,0,0,1,1.272-.347.433.433,0,0,1,.144.029V64.5c.015,0-.044-.867-.795-.867" transform="translate(-24590.65 -9908.981)" fill="#ea352b"></path><path d="M192.411,74.033a.659.659,0,0,0-.159.014A1.127,1.127,0,0,0,191.2,75.2v1.778a3.9,3.9,0,0,1,1.908-.593V74.64s.029-.607-.694-.607" transform="translate(-24590.627 -9915.565)" fill="#ea352b"></path><path d="M201,108.107a10.415,10.415,0,0,0,1.894,1.272,2.528,2.528,0,0,1-1.446-.289c-.491-.39-.505-.52-.448-.983" transform="translate(-24596.82 -9937.139)" fill="#191717"></path><path d="M197.42,4.052h-1.783l2.473-2.586Zm.605,0,.935-3.5h-.2L195.112,4.4l-.044.16h2.214l-.4,1.482h.609l.4-1.482h.895l.122-.512ZM196.11.586a.932.932,0,0,1-.806.337c-.7,0-1.04-.386-1.814-.386-.9,0-1.184.526-1.184.988,0,.58.433.921,1.2,1.1l.04-.127c-.624-.129-1.059-.434-1.059-.892,0-.356.246-.572.691-.572.55,0,.762.224,1.438.224A2.376,2.376,0,0,0,195.908.9c-.872,1.118-3.087,3.3-3.354,4.825a1.024,1.024,0,0,0-.019.171c0,.16.063.256.25.256a.5.5,0,0,0,.464-.39c.044-.145.037-.241.129-.6.524-1.991,2.062-3.314,2.973-4.577Zm-3.932,0a.934.934,0,0,1-.807.337c-.7,0-1.041-.386-1.813-.386-.9,0-1.185.526-1.185.988,0,.58.434.921,1.2,1.1l.041-.127c-.624-.129-1.059-.434-1.059-.892,0-.356.244-.572.691-.572.55,0,.762.224,1.438.224A2.381,2.381,0,0,0,191.976.9c-.873,1.118-3.087,3.3-3.354,4.825a1.033,1.033,0,0,0-.019.171c0,.16.064.256.249.256a.5.5,0,0,0,.466-.39c.044-.145.037-.241.129-.6.524-1.991,2.062-3.314,2.972-4.577Zm-5.906,5.461,1.482-5.5H187.6a4.767,4.767,0,0,1-1.831,1.015l-.023.159a5.332,5.332,0,0,0,1.132-.464L185.6,6.047Zm-6.034-.137c-.22,0-.335-.212-.335-.661,0-1.22.815-3.044,1.787-3.044.175,0,.339.112.406.387l-.283,1.055c-.389,1.223-1.128,2.262-1.575,2.262m2.489-1.1-.094.281c-.2.58-.356.778-.553.778-.137,0-.183-.09-.183-.212a.951.951,0,0,1,.046-.26L183.432,0a2.883,2.883,0,0,1-1.344.312l-.048.16c.382,0,.52.1.52.3a.787.787,0,0,1-.033.2l-.38,1.423a.5.5,0,0,0-.464-.364c-1.409,0-2.456,1.9-2.456,3.117,0,.688.312,1.007.791,1.007.539,0,1.018-.4,1.513-1.448l-.1.383a2.585,2.585,0,0,0-.1.59.429.429,0,0,0,.479.475c.3,0,.691-.167.88-.784l.179-.556Zm-4.348-2.639c.077,0,.121.052.121.342a1.514,1.514,0,0,1-.593,1.215,3.73,3.73,0,0,1-1.038.491c.283-1.093,1.011-2.048,1.51-2.048m.732.357a.5.5,0,0,0-.564-.5c-1.446,0-2.509,1.946-2.509,3.051a.945.945,0,0,0,1,1.073,1.944,1.944,0,0,0,1.531-1.021l-.123-.06a1.451,1.451,0,0,1-1.174.761c-.319,0-.524-.215-.524-.732a3.3,3.3,0,0,1,.086-.736c.876-.3,2.274-.906,2.274-1.835M173,5.91c-.22,0-.335-.212-.335-.661,0-1.22.814-3.044,1.787-3.044.175,0,.339.112.406.387l-.283,1.055C174.186,4.87,173.445,5.91,173,5.91m2.489-1.1L175.4,5.1c-.2.58-.356.778-.553.778-.138,0-.183-.09-.183-.212a1.006,1.006,0,0,1,.044-.26l1.49-5.4a2.883,2.883,0,0,1-1.344.312l-.048.16c.382,0,.52.1.52.3a.734.734,0,0,1-.034.2l-.378,1.423a.5.5,0,0,0-.465-.364c-1.408,0-2.455,1.9-2.455,3.117,0,.688.312,1.007.791,1.007.539,0,1.018-.4,1.512-1.448l-.1.383a2.653,2.653,0,0,0-.1.59.429.429,0,0,0,.479.475c.3,0,.691-.167.88-.784l.179-.556Zm-3.9,0h-.142l-.1.283c-.21.61-.4.778-.586.778a.163.163,0,0,1-.182-.187.976.976,0,0,1,.059-.285l.74-2.223a1.962,1.962,0,0,0,.112-.576c0-.327-.152-.572-.613-.572-.691,0-1.249.543-1.906,2.1l.263-1.041a2.7,2.7,0,0,0,.1-.613.394.394,0,0,0-.449-.45c-.327,0-.684.146-.9.783l-.193.554h.144l.1-.283c.212-.591.364-.776.587-.776.13,0,.167.081.167.185a1.031,1.031,0,0,1-.056.287l-.911,3.266h.662l.133-.532c.531-1.842,1.4-3.243,2-3.243.191,0,.246.118.246.264a1.223,1.223,0,0,1-.078.374l-.721,2.178a1.949,1.949,0,0,0-.13.594.476.476,0,0,0,.06.25.52.52,0,0,0,.479.222c.312,0,.7-.145.921-.784Zm-4.472,0-.1.281c-.2.566-.372.778-.591.778-.119,0-.164-.067-.164-.175a1.194,1.194,0,0,1,.056-.3l.944-3.371a2.41,2.41,0,0,1-.7.105l-.116.453c-.53,1.954-1.36,3.321-1.945,3.321-.161,0-.242-.081-.242-.26a1.205,1.205,0,0,1,.075-.38l.724-2.177a2.1,2.1,0,0,0,.122-.59c0-.276-.129-.473-.534-.473-.312,0-.7.146-.918.783l-.193.554h.145l.1-.283c.212-.609.394-.776.587-.776.123,0,.179.063.179.185a1.025,1.025,0,0,1-.059.287L163.756,5a1.817,1.817,0,0,0-.112.566c0,.356.185.586.641.586.643,0,1.171-.538,1.781-2.02l-.241.955a2.713,2.713,0,0,0-.108.624.52.52,0,0,0,.044.233.425.425,0,0,0,.389.208c.312,0,.7-.145.922-.784l.189-.556ZM162,2.183c.286,0,.431.2.431.662,0,1.36-.676,3.158-1.5,3.158-.289,0-.433-.208-.433-.661,0-1.357.683-3.159,1.5-3.159m-2.155,2.776c0,.807.412,1.2,1.044,1.2,1.424,0,2.2-1.812,2.2-2.931,0-.807-.409-1.193-1.04-1.193-1.424,0-2.2,1.81-2.2,2.928m-.7-4.276c-.457,0-1.46,0-2.207-.023L156.9.812c.365.015.51.06.51.283a1.5,1.5,0,0,1-.067.372l-1.011,3.775c-.152.553-.268.632-.784.653l-.04.153c.216-.015.572-.022.967-.022.412,0,.854.006,1.117.022l.042-.153c-.472-.014-.655-.062-.655-.315a1.446,1.446,0,0,1,.06-.338l.468-1.751h.557c.417,0,.521.205.521.477a4.225,4.225,0,0,1-.064.527h.175c.121-.577.185-.829.244-1.082s.123-.5.312-1.077h-.175c-.152.364-.312,1-.973,1h-.558l.5-1.873c.153-.554.268-.632.784-.632h.4c.673,0,.876.182.876.664a4.9,4.9,0,0,1-.085.759h.175a6.237,6.237,0,0,1,.145-.624c.052-.191.175-.587.312-.974-.45.023-1.073.023-1.516.023" transform="translate(-24573.609 -9869.484)" fill="#fff"></path><g transform="translate(-24443 -9787.658)"><g><path d="M93.555,5.573h-.322l-.059.237c-.154.591-.273.9-1.338.9h-.557c-.983,0-1.1-.2-1.1-1.387v-3.4c0-1.182.129-1.375,1.077-1.375V.207H87.69V.55c.948,0,1.066.19,1.066,1.375V5.588c0,1.182-.118,1.386-1.066,1.386v.343h5.769ZM85.611,3.758c0,1.578-.463,3.118-1.909,3.118-1.471,0-1.921-1.541-1.921-3.118S82.231.641,83.7.641c1.446,0,1.909,1.541,1.909,3.117m1.539,0A3.527,3.527,0,0,0,83.861.009C83.808.006,83.754,0,83.7,0a3.522,3.522,0,0,0-3.461,3.756,3.467,3.467,0,1,0,6.909,0m-9.369,0c0,1.578-.463,3.118-1.909,3.118-1.47,0-1.921-1.541-1.921-3.118S74.4.641,75.872.641c1.447,0,1.909,1.541,1.909,3.117m1.539,0A3.527,3.527,0,0,0,76.031.009c-.053,0-.106-.006-.16-.007A3.522,3.522,0,0,0,72.41,3.758a3.467,3.467,0,1,0,6.909,0M71.87,7.314V6.977c-.961,0-1.079-.2-1.079-1.386V1.928c0-1.182.118-1.375,1.079-1.375V.21H68.362V.553c.913,0,1.009.19,1.009,1.375V3.245H66.43V1.928c0-1.182.095-1.375,1.021-1.375V.21H63.942V.553c.948,0,1.067.19,1.067,1.375V5.591c0,1.182-.118,1.386-1.067,1.386V7.32H67.45V6.977c-.926,0-1.021-.2-1.021-1.386V3.848h2.941V5.591c0,1.182-.1,1.386-1.009,1.386V7.32Zm-8.9-.041V4.664h-.33c-.32,1.517-1.068,2.181-2.04,2.181-1.552,0-2-1.612-2-3.083s.438-3.082,2-3.082c.972,0,1.72.64,2.04,2.181h.33V.253h-.308a.944.944,0,0,1-.308.6A2.544,2.544,0,0,0,60.329,0C58.408,0,57.071,1.7,57.071,3.759s1.338,3.758,3.259,3.758a2.543,2.543,0,0,0,2.028-.853.947.947,0,0,1,.308.6Zm-6.8-2.014a2.171,2.171,0,0,0-1.242-1.933l-.887-.474c-.936-.5-1.376-.783-1.376-1.33a.882.882,0,0,1,.876-.889c.024,0,.049,0,.073,0a1.708,1.708,0,0,1,1.66,1.636h.33V.007h-.282a1.084,1.084,0,0,1-.344.485A2.167,2.167,0,0,0,53.6.007a1.942,1.942,0,0,0-2,1.88c0,.021,0,.042,0,.063A2.229,2.229,0,0,0,52.861,4l.948.5c.641.332,1.317.723,1.317,1.315,0,.628-.426,1.066-1.222,1.066a2.19,2.19,0,0,1-2.075-1.955H51.5V7.461h.3a1.26,1.26,0,0,1,.345-.517,3.419,3.419,0,0,0,1.79.58A2.143,2.143,0,0,0,56.181,5.5a2.249,2.249,0,0,0,0-.234M48.074.887a.782.782,0,0,0-.68-.872L47.328.01A.712.712,0,0,0,46.605.7a.7.7,0,0,0,.687.71.2.2,0,0,0,.083-.012,2.352,2.352,0,0,1-.759,1.3l.19.2A2.54,2.54,0,0,0,48.074.887M45.717,5.261a2.17,2.17,0,0,0-1.243-1.933l-.887-.474c-.936-.5-1.376-.783-1.376-1.33a.882.882,0,0,1,.876-.889.6.6,0,0,1,.073,0,1.708,1.708,0,0,1,1.66,1.636h.33V.009h-.287a1.084,1.084,0,0,1-.344.485A2.175,2.175,0,0,0,43.132.009a1.942,1.942,0,0,0-2,1.88c0,.021,0,.042,0,.063A2.23,2.23,0,0,0,42.4,4l.949.5c.641.332,1.317.723,1.317,1.315,0,.628-.426,1.066-1.222,1.066a2.189,2.189,0,0,1-2.075-1.955h-.33V7.463h.3a1.257,1.257,0,0,1,.344-.517,3.421,3.421,0,0,0,1.791.58A2.143,2.143,0,0,0,45.716,5.5a2.25,2.25,0,0,0,0-.234M38.456,3.769c0,1.483-.462,2.956-1.98,2.956h-.059c-.865,0-.984-.19-.984-1.363V.821h1.043c1.519,0,1.98,1.47,1.98,2.951m1.516,0a3.248,3.248,0,0,0-3.5-3.554H32.944V.56c.948,0,1.066.19,1.066,1.375V5.6c0,1.182-.118,1.386-1.066,1.386v.343h3.531a3.249,3.249,0,0,0,3.5-3.556M32.213.56V.217H29.44V.56c.95,0,1.068.19,1.068,1.375V5.018L27.069.215h-2.2V.558c.948,0,1.067.19,1.067,1.375V5.6c0,1.182-.118,1.386-1.067,1.386v.343H27.65V6.977c-.948,0-1.079-.2-1.079-1.386V1.94l3.9,5.476h.665V1.928c0-1.182.131-1.375,1.079-1.375M24.091,5.573h-.335l-.059.237c-.141.591-.284.9-1.346.9h-.486c-.985,0-1.1-.19-1.1-1.376V3.857h.369c1.068,0,1.233.106,1.233,1.1H22.7V2.151h-.331c0,1-.166,1.1-1.233,1.1h-.369V.811h1.2c1.069,0,1.2.3,1.358.887l.059.237h.33L23.6.2H18.274V.548c.948,0,1.066.19,1.066,1.376V5.586c0,1.182-.118,1.386-1.066,1.386v.343H24Zm-6.6,1.741V6.977c-.948,0-1.079-.2-1.079-1.386V1.928c0-1.182.13-1.375,1.079-1.375V.21H13.93V.553C14.878.553,15,.743,15,1.928V5.591c0,1.182-.118,1.386-1.066,1.386V7.32ZM9.4.772a1.429,1.429,0,0,1,0,2.858H8.787V.772Zm3.957,6.542V6.977c-.569-.059-1.182-.569-1.931-1.506l-1.066-1.33A1.978,1.978,0,0,0,12.2,2.21c0-1.162-.936-2-2.5-2H6.3V.55c.948,0,1.067.19,1.067,1.375V5.587c0,1.187-.118,1.388-1.067,1.388v.343H9.868V6.977c-.949,0-1.08-.2-1.08-1.388V4.2h.369L11.115,7.32ZM5.621,1.935,5.514.2H0V.547c.948,0,1.067.19,1.067,1.376V5.585C1.067,6.768.949,6.971,0,6.971v.343H3.568V6.977c-.95,0-1.08-.2-1.08-1.386V3.86h.344c1.068,0,1.233.118,1.233,1.114H4.4V2.142H4.064c0,1-.166,1.114-1.233,1.114H2.488V.814h1.4c1.07,0,1.19.3,1.345.887l.059.237Z" transform="translate(0 0)" fill="#fff"></path><path d="M83.258,17.686v-.242H81.3v.242c.668,0,.752.134.752.97v2.173l-2.424-3.386H78.079v.242c.668,0,.752.134.752.97v2.582c0,.834-.084.977-.752.977v.242h1.963v-.236c-.67,0-.761-.142-.761-.978V18.667l2.75,3.86H82.5V18.659c0-.834.092-.97.76-.97" transform="translate(-20.38 -4.553)" fill="#fff"></path><path d="M68.271,17.687v-.242H66.258v.242c.669,0,.76.134.76.97v1.93c0,1-.426,1.5-1.145,1.5-.694,0-1.121-.485-1.121-1.5v-1.93c0-.834.092-.97.761-.97v-.242H63v.242c.66,0,.752.134.752.97V20.6a1.83,1.83,0,0,0,1.643,2,1.922,1.922,0,0,0,.261.007,1.8,1.8,0,0,0,1.854-2V18.656c0-.834.092-.97.761-.97" transform="translate(-16.444 -4.554)" fill="#fff"></path><path d="M61.2,21.054a1.367,1.367,0,0,0-1.018-1.319,1.221,1.221,0,0,0,.634-1.045c0-.694-.559-1.244-1.595-1.244h-2.28v.242c.668,0,.752.134.752.969v2.583c0,.833-.084.977-.752.977v.242h2.514C60.6,22.458,61.2,21.833,61.2,21.054Zm-2.524-3.217H59c.585,0,.828.368.828.894h0a.785.785,0,0,1-.692.867.763.763,0,0,1-.154,0h-.313Zm1.542,3.184c0,.594-.251,1.045-.845,1.045h-.052c-.569,0-.644-.126-.644-.76V19.993h.579a.9.9,0,0,1,.968.831.919.919,0,0,1-.006.2" transform="translate(-14.862 -4.554)" fill="#fff"></path><path d="M55.272,20.95a1.532,1.532,0,0,0-.876-1.363l-.625-.335c-.66-.351-.97-.551-.97-.937a.622.622,0,0,1,.617-.627l.052,0a1.2,1.2,0,0,1,1.171,1.153h.233v-1.6h-.2a.765.765,0,0,1-.242.342,1.53,1.53,0,0,0-.978-.342,1.37,1.37,0,0,0-1.411,1.326v.043a1.574,1.574,0,0,0,.893,1.446l.669.351c.452.234.928.51.928.927,0,.443-.3.752-.861.752a1.543,1.543,0,0,1-1.463-1.378h-.233V22.5h.208a.879.879,0,0,1,.242-.365,2.414,2.414,0,0,0,1.262.409,1.512,1.512,0,0,0,1.587-1.431c0-.055,0-.11,0-.165" transform="translate(-13.567 -4.502)" fill="#fff"></path><path d="M50.26,22.457V22.22c-.668,0-.76-.142-.76-.978V18.66c0-.834.092-.97.76-.97v-.242H47.747v.242c.668,0,.752.134.752.97v2.582c0,.834-.084.978-.752.978v.242Z" transform="translate(-12.463 -4.555)" fill="#fff"></path><path d="M45.644,21.23h-.227l-.042.167c-.108.417-.192.636-.943.636H44.04c-.693,0-.777-.143-.777-.978v-2.4c0-.834.092-.97.76-.97v-.242H41.51v.242c.668,0,.752.134.752.97V21.24c0,.834-.084.977-.752.977v.242h4.07Z" transform="translate(-10.835 -4.554)" fill="#fff"></path><path d="M74.422,21.157l-.751-.937a1.4,1.4,0,0,0,1.294-1.362c0-.819-.659-1.411-1.762-1.411h-2.4v.242c.668,0,.752.134.752.97v2.581c0,.837-.084.978-.752.978v.242H73.32v-.24c-.669,0-.76-.142-.76-.978v-.977h.26l1.38,2.2,1.584,0v-.239c-.4-.041-.834-.4-1.362-1.062m-1.863-1.3V17.847h.435a1.007,1.007,0,0,1,0,2.014Z" transform="translate(-18.482 -4.554)" fill="#fff"></path></g></g></g></svg>
