<?xml version="1.0" encoding="UTF-8" standalone="no"?>
<!-- Created with Inkscape (http://www.inkscape.org/) -->

<svg
   width="600mm"
   height="600mm"
   viewBox="0 0 600 600"
   version="1.1"
   id="svg1"
   inkscape:version="1.3.2 (091e20ef0f, 2023-11-25, custom)"
   sodipodi:docname="Logo.svg"
   xmlns:inkscape="http://www.inkscape.org/namespaces/inkscape"
   xmlns:sodipodi="http://sodipodi.sourceforge.net/DTD/sodipodi-0.dtd"
   xmlns="http://www.w3.org/2000/svg"
   xmlns:svg="http://www.w3.org/2000/svg">
  <sodipodi:namedview
     id="namedview1"
     pagecolor="#505050"
     bordercolor="#eeeeee"
     borderopacity="1"
     inkscape:showpageshadow="0"
     inkscape:pageopacity="0"
     inkscape:pagecheckerboard="0"
     inkscape:deskcolor="#505050"
     inkscape:document-units="mm"
     inkscape:zoom="0.18236936"
     inkscape:cx="762.18943"
     inkscape:cy="1019.9082"
     inkscape:window-width="1588"
     inkscape:window-height="988"
     inkscape:window-x="0"
     inkscape:window-y="0"
     inkscape:window-maximized="1"
     inkscape:current-layer="layer1" />
  <defs
     id="defs1" />
  <g
     inkscape:label="Layer 1"
     inkscape:groupmode="layer"
     id="layer1">
    <rect
       style="fill:#000000;stroke:#ffffff;stroke-width:0;stroke-dasharray:none;stroke-dashoffset:0"
       id="rect1"
       width="600"
       height="600"
       x="1.4210855e-14"
       y="0"
       ry="94.393341" />
    <text
       xml:space="preserve"
       style="font-size:50.8px;font-family:'JetBrains Mono';-inkscape-font-specification:'JetBrains Mono';text-align:center;text-anchor:middle;fill:#ffffff;stroke:#ffffff;stroke-width:7"
       x="175.51929"
       y="216.57909"
       id="text1"><tspan
         sodipodi:role="line"
         id="tspan1"
         style="font-size:50.8px;text-align:center;text-anchor:middle;stroke-width:7"
         x="175.51929"
         y="216.57909" /></text>
    <text
       xml:space="preserve"
       style="font-size:50.8px;font-family:'JetBrains Mono';-inkscape-font-specification:'JetBrains Mono';text-align:center;text-anchor:middle;fill:#ffffff;stroke:#ffffff;stroke-width:7"
       x="45.784599"
       y="249.13667"
       id="text2"><tspan
         sodipodi:role="line"
         id="tspan2"
         style="stroke-width:7"
         x="45.784599"
         y="249.13667" /></text>
    <g
       id="g8"
       transform="translate(43.999999,43.999999)">
      <path
         id="path5"
         style="fill:none;stroke:#ffffff;stroke-width:24.7344"
         d="M 499.63283,256 A 243.63283,243.63283 0 0 1 256,499.63283 243.63283,243.63283 0 0 1 12.367172,256 243.63283,243.63283 0 0 1 256,12.367172 243.63283,243.63283 0 0 1 499.63283,256 Z" />
      <g
         id="g5"
         transform="matrix(8.5532116,0,0,8.5532116,-1891.4122,-1586.5396)">
        <path
           d="m 239.66249,204.372 q -1.6764,0 -2.7432,-1.0668 -1.0668,-1.0668 -1.0668,-2.7432 0,-1.6256 1.0668,-2.6924 1.1176,-1.1176 2.7432,-1.1176 h 1.016 q 1.6256,0 2.6924,1.1176 1.1176,1.0668 1.1176,2.6924 0,1.6764 -1.0668,2.7432 -1.0668,1.0668 -2.7432,1.0668 z m -4.318,28.956 2.794,-15.5448 h 5.4864 l -3.556,15.5448 z"
           id="text3"
           style="font-size:50.8px;font-family:'JetBrains Mono';-inkscape-font-specification:'JetBrains Mono';text-align:center;text-anchor:middle;fill:#ffffff;stroke:#ffffff;stroke-width:0"
           aria-label=";" />
        <path
           d="m 252.61233,222.91379 v -8.636 h 2.54 q 3.2512,0 5.1308,-1.778 1.9304,-1.8288 1.9304,-4.826 0,-2.9972 -1.9304,-4.7752 -1.8796,-1.8288 -5.1816,-1.8288 h -6.35 v -4.318 h 6.35 q 3.556,0 6.1468,1.3716 2.6416,1.3208 4.064,3.7592 1.4732,2.4384 1.4732,5.7912 0,2.8956 -1.2192,5.2324 -1.2192,2.286 -3.4036,3.6576 -2.1336,1.3716 -4.9784,1.524 v 4.826 z m 1.4732,11.17599 q -1.3208,0 -2.1844,-0.8636 -0.8636,-0.8636 -0.8636,-2.1844 0,-1.3208 0.8636,-2.1844 0.8636,-0.8636 2.1844,-0.8636 h 1.524 q 1.4732,0 2.2352,0.8636 0.8128,0.8128 0.8128,2.1336 0,1.3208 -0.8636,2.2352 -0.8636,0.8636 -2.1844,0.8636 z"
           id="text4"
           style="font-size:50.8px;font-family:'JetBrains Mono';-inkscape-font-specification:'JetBrains Mono';text-align:center;text-anchor:middle;fill:#ffffff;stroke:#ffffff;stroke-width:0"
           aria-label="?&#10;" />
      </g>
    </g>
    <circle
       id="path6"
       style="fill:#ffffff;stroke:#ffffff;stroke-width:0.264583"
       cx="244.47379"
       cy="187.31192"
       r="0" />
  </g>
</svg>
